<svg width="160" height="120" viewBox="0 0 160 120" fill="none" xmlns="http://www.w3.org/2000/svg">
<path d="M119.5 84.8071C116.626 85.5405 114.849 84.8393 113.254 82.4359L101.913 66.6872L100.273 64.5068L87.0285 82.4879C85.5152 84.651 83.9278 85.5925 81.1035 84.8269L98.0638 61.977L82.2737 41.3373C84.9893 40.807 86.8656 41.0771 88.532 43.5177L100.296 59.4621L112.146 43.6044C113.664 41.4413 115.296 40.6187 118.021 41.4165L111.899 49.5634L103.604 60.4036C102.616 61.6425 102.752 62.4899 103.66 63.6867L119.5 84.8071ZM40.5198 61.5954L41.9072 54.7469C45.6844 41.1935 61.1634 35.5616 71.8383 43.9364C78.0768 48.8622 79.6272 55.8297 79.3186 63.6346H44.1538C43.6254 77.6835 53.7004 86.1624 66.5453 81.8362C71.0508 80.3174 73.7047 76.7767 75.0329 72.3464C75.7068 70.1263 76.8227 69.7795 78.9014 70.4138C77.8398 75.954 75.4452 80.5825 70.3842 83.479C62.8224 87.8151 52.0291 86.4127 46.3509 80.3867C42.9687 76.8906 41.5714 72.4604 40.9444 67.7229C40.8456 66.9399 40.6481 66.1941 40.5 65.4434C40.5132 64.1616 40.5198 62.8797 40.5198 61.5979V61.5954ZM44.2179 60.6539H75.9957C75.7883 50.4951 69.4856 43.2798 60.8721 43.2179C51.4168 43.1435 44.6278 50.1878 44.2179 60.6539V60.6539Z" fill="#fff"/>
</svg>
